<!DOCTYPE svg PUBLIC "-//W3C//DTD SVG 1.1//EN" "http://www.w3.org/Graphics/SVG/1.1/DTD/svg11.dtd">

<!-- Uploaded to: SVG Repo, www.svgrepo.com, Transformed by: SVG Repo Mixer Tools -->
<svg width="24px" height="24px" viewBox="-6.61 -6.61 33.25 33.25" xmlns="http://www.w3.org/2000/svg" fill="#000000" transform="rotate(0)matrix(1, 0, 0, 1, 0, 0)">

<g id="SVGRepo_bgCarrier" stroke-width="0"/>

<g id="SVGRepo_tracerCarrier" stroke-linecap="round" stroke-linejoin="round" stroke="#CCCCCC" stroke-width="0.04006"/>

<g id="SVGRepo_iconCarrier"> <g id="moon-alt" transform="translate(-2.25 -2)"> <path id="secondary" fill="#FFCE54" d="M21,12A9,9,0,0,1,3.25,14.13,6.9,6.9,0,0,0,8,16,7,7,0,0,0,11.61,3H12a9,9,0,0,1,9,9Z"/> <path id="primary" d="M21,12A9,9,0,0,1,3.25,14.13,6.9,6.9,0,0,0,8,16,7,7,0,0,0,11.61,3H12a9,9,0,0,1,9,9Z" fill="none" stroke="#FFCE54" stroke-linecap="round" stroke-linejoin="round" stroke-width="2"/> </g> </g>

</svg>